<?xml version="1.0" encoding="UTF-8" standalone="no"?>
<svg
   width="32"
   height="32"
   viewBox="0 0 32 32"
   fill="none"
   version="1.1"
   id="svg1"
   sodipodi:docname="linkedin.svg"
   xml:space="preserve"
   inkscape:version="1.4 (86a8ad7, 2024-10-11)"
   xmlns:inkscape="http://www.inkscape.org/namespaces/inkscape"
   xmlns:sodipodi="http://sodipodi.sourceforge.net/DTD/sodipodi-0.dtd"
   xmlns="http://www.w3.org/2000/svg"
   xmlns:svg="http://www.w3.org/2000/svg"><defs
     id="defs1" /><sodipodi:namedview
     id="namedview1"
     pagecolor="#505050"
     bordercolor="#eeeeee"
     borderopacity="1"
     inkscape:showpageshadow="0"
     inkscape:pageopacity="0"
     inkscape:pagecheckerboard="0"
     inkscape:deskcolor="#505050"
     inkscape:zoom="12.609375"
     inkscape:cx="12.728625"
     inkscape:cy="9.3184634"
     inkscape:window-width="1920"
     inkscape:window-height="1009"
     inkscape:window-x="-8"
     inkscape:window-y="-8"
     inkscape:window-maximized="1"
     inkscape:current-layer="svg1" /><rect
     x="1"
     y="1"
     width="30"
     height="30"
     rx="15"
     stroke="#ffffff"
     stroke-width="2"
     id="rect1"
     style="display:inline" /><path
     d="m 15.7567,11.8978 c -2.2666,-0.0071 -4.1085,1.828 -4.1156,4.0951 -0.0071,2.2671 1.8276,4.1093 4.0942,4.1164 2.2665,0.0072 4.1084,-1.8279 4.1155,-4.095 0.0072,-2.2671 -1.8275,-4.1094 -4.0941,-4.1165 z m -0.0214,1.4424 c 1.4706,-0.0072 2.6663,1.1817 2.6735,2.6527 0.0071,1.4709 -1.1815,2.6669 -2.6521,2.6741 -1.4706,0.0071 -2.6664,-1.1818 -2.6735,-2.6527 -0.0072,-1.471 1.1814,-2.667 2.6521,-2.6741 z M 19.0691,11.73 c 0,-0.5284 0.4283,-0.9568 0.9566,-0.9568 0.5283,0 0.9566,0.4284 0.9566,0.9568 0,0.5284 -0.4283,0.9568 -0.9566,0.9568 -0.5283,0 -0.9566,-0.4284 -0.9566,-0.9568 z m 4.6296,0.9711 C 23.638,11.4194 23.3453,10.2841 22.4065,9.34866 21.4713,8.41325 20.3363,8.1205 19.0548,8.05623 17.7341,7.98126 13.7756,7.98126 12.4549,8.05623 11.1771,8.11693 10.042,8.40968 9.10324,9.34509 8.16448,10.2805 7.87535,11.4158 7.8111,12.6975 c -0.07496,1.321 -0.07496,5.2804 0,6.6014 0.06068,1.2817 0.35338,2.417 1.29214,3.3524 0.93876,0.9354 2.07026,1.2282 3.35166,1.2925 1.3207,0.0749 5.2792,0.0749 6.5999,0 1.2815,-0.0607 2.4165,-0.3535 3.3517,-1.2925 0.9352,-0.9354 1.2279,-2.0707 1.2922,-3.3524 0.0749,-1.321 0.0749,-5.2768 0,-6.5978 z m -1.7062,8.0152 c -0.2784,0.6997 -0.8174,1.2388 -1.5206,1.5209 -1.053,0.4177 -3.5516,0.3213 -4.7152,0.3213 -1.1637,0 -3.6658,0.0928 -4.7153,-0.3213 C 10.3418,21.9587 9.80285,21.4196 9.52086,20.7163 9.10324,19.6631 9.19961,17.1639 9.19961,16 c 0,-1.1639 -0.0928,-3.6666 0.32125,-4.7163 0.27842,-0.6997 0.81744,-1.2388 1.52054,-1.5209 1.053,-0.41771 3.5516,-0.32132 4.7153,-0.32132 1.1636,0 3.6658,-0.09282 4.7152,0.32132 0.6996,0.2785 1.2386,0.8176 1.5206,1.5209 0.4176,1.0532 0.3212,3.5524 0.3212,4.7163 0,1.1639 0.0964,3.6666 -0.3212,4.7163 z"
     fill="#ffffff"
     id="path1"
     style="display:none" /><style
     id="style3"
     type="text/css">
    .st0{fill:red}.st1{fill:#fff}.st2{fill:#282828}
  </style><g
     style="fill:#ffffff"
     id="g2"
     transform="translate(7.0001146,6.9999261)"><path
       d="m 14.9997,10.128 v 4.658 c 0.0014,0.0547 -0.0179,0.1079 -0.054,0.149 -0.017,0.0192 -0.038,0.0345 -0.0615,0.0448 -0.0234,0.0104 -0.0489,0.0155 -0.0745,0.0152 h -2.187 c -0.0257,3e-4 -0.0511,-0.0048 -0.0746,-0.0152 -0.0235,-0.0103 -0.0444,-0.0256 -0.0614,-0.0448 -0.0366,-0.0409 -0.0563,-0.0942 -0.055,-0.149 V 10.46 c 0,-1.13805 -0.368,-1.91905 -1.3,-1.91905 -0.3,0.01104 -0.5886,0.11716 -0.8243,0.30303 C 10.0717,9.02985 9.90129,9.28584 9.82067,9.57495 9.75364,9.7982 9.72423,10.0311 9.73367,10.264 v 4.527 C 9.7352,14.8457 9.71591,14.8989 9.67968,14.94 9.66272,14.9592 9.64177,14.9746 9.61828,14.9849 9.5948,14.9953 9.56933,15.0004 9.54367,15 H 7.36166 C 7.30877,14.9974 7.25909,14.9739 7.22348,14.9347 7.18786,14.8955 7.16921,14.8438 7.17166,14.791 c 0,-1.151 0.028,-6.74705 0,-8.06405 C 7.1702,6.67273 7.18912,6.61993 7.22467,6.57895 7.24115,6.55976 7.26155,6.5443 7.28448,6.53361 7.30741,6.52292 7.33236,6.51724 7.35766,6.51695 h 2.17801 c 0.02518,-4.2e-4 0.05017,0.00454 0.07327,0.01454 0.02311,0.01 0.04381,0.02482 0.06073,0.04346 0.03648,0.04022 0.05648,0.09271 0.056,0.147 v 1.025 -0.031 C 9.93735,7.28959 10.2661,6.93234 10.6734,6.686 c 0.4073,-0.24634 0.8764,-0.37157 1.3523,-0.36105 1.687,0 2.95,1.212 2.95,3.81605 z M 3.37268,15 h 2.182 C 5.60757,14.9974 5.65725,14.9739 5.69287,14.9347 5.72848,14.8955 5.7471,14.8438 5.74465,14.791 V 6.72195 C 5.74472,6.6706 5.72503,6.62119 5.68966,6.58395 5.65429,6.54672 5.60597,6.52452 5.55468,6.52195 h -2.182 C 3.3475,6.52153 3.32251,6.52649 3.2994,6.53649 3.2763,6.54649 3.2556,6.56131 3.23867,6.57995 3.20219,6.62017 3.1822,6.67266 3.18267,6.72695 V 14.795 c -0.00125,0.0548 0.01841,0.1081 0.055,0.149 0.01721,0.0184 0.03818,0.0329 0.06146,0.0425 0.02328,0.0097 0.04835,0.0143 0.07355,0.0135 z"
       fill="#344054"
       id="path1-5"
       style="fill:#ffffff" /><path
       d="M 6.01789,4.52595 C 6.01399,4.87468 5.88941,5.21129 5.66536,5.47854 5.4413,5.74579 5.13159,5.92719 4.78889,5.99188 4.44619,6.05657 4.09169,6.00056 3.78563,5.83338 3.47956,5.6662 3.24085,5.39816 3.11009,5.07486 2.97933,4.75155 2.96458,4.39293 3.06837,4.05999 3.17216,3.72704 3.38805,3.44032 3.67936,3.24858 3.97067,3.05685 4.31942,2.97193 4.66627,3.00828 5.01312,3.04463 5.33665,3.19999 5.58189,3.44795 5.72225,3.58987 5.83307,3.75823 5.90791,3.94327 5.98275,4.12831 6.02013,4.32636 6.01789,4.52595 Z"
       fill="#344054"
       id="path2"
       style="fill:#ffffff" /></g></svg>
